<svg xmlns="http://www.w3.org/2000/svg" viewBox="0 0 96 96" role="img" aria-label="Shivani's Sparkle Streak logo">
  <defs>
    <linearGradient id="blush" x1="12" x2="86" y1="8" y2="91" gradientUnits="userSpaceOnUse">
      <stop stop-color="#fff3fa"/>
      <stop offset=".5" stop-color="#ffd0e8"/>
      <stop offset="1" stop-color="#ff70b9"/>
    </linearGradient>
    <linearGradient id="ribbon" x1="24" x2="76" y1="28" y2="76" gradientUnits="userSpaceOnUse">
      <stop stop-color="#ff4fa3"/>
      <stop offset="1" stop-color="#b88cff"/>
    </linearGradient>
    <filter id="sparkle-glow" x="-40%" y="-40%" width="180%" height="180%">
      <feGaussianBlur stdDeviation="2.2" result="blur"/>
      <feColorMatrix in="blur" result="glow" type="matrix" values="1 0 0 0 1 0 .55 0 0 .48 0 0 .16 0 .18 0 0 0 .92 0"/>
      <feMerge>
        <feMergeNode in="glow"/>
        <feMergeNode in="SourceGraphic"/>
      </feMerge>
    </filter>
  </defs>
  <rect width="96" height="96" rx="24" fill="url(#blush)"/>
  <path d="M29.5 54.5c7.4-19.7 25.4-25.5 41-23-5.7 5-9.8 11.5-11.5 18.9 6.6-1.6 12.3-.8 17.2 2.5C62.3 57.8 53.3 66.8 48.4 80c-4.9-7.4-11.5-12.3-19.7-15.6 6.6-1.6 12.3-4.9 17.2-9.8-6.6-1.8-12.3-1.8-16.4-.1Z" fill="url(#ribbon)"/>
  <path d="M29 44.5c7.4 4.9 14.8 10.7 22.2 19.7C59.4 48.6 68.4 38 80.7 29" fill="none" stroke="#fffafd" stroke-width="6" stroke-linecap="round" stroke-linejoin="round"/>
  <g filter="url(#sparkle-glow)">
    <path d="m18 18 4 10 10 4-10 4-4 10-4-10-10-4 10-4Z" fill="#ffd76b" stroke="#fffafd" stroke-width="2.8" stroke-linejoin="round"/>
    <path d="m76 8 3.5 9L89 20.5 79.5 24 76 33l-3.5-9L63 20.5 72.5 17Z" fill="#ff4fa3" stroke="#fffafd" stroke-width="2.8" stroke-linejoin="round"/>
    <path d="m78 66 4 10 10 4-10 4-4 10-4-10-10-4 10-4Z" fill="#ffd76b" stroke="#fffafd" stroke-width="2.8" stroke-linejoin="round"/>
    <path d="m12 70 2 6 6 2-6 2-2 6-2-6-6-2 6-2Z" fill="#b88cff" stroke="#fffafd" stroke-width="2" stroke-linejoin="round"/>
    <path d="m88 48 2 6 6 2-6 2-2 6-2-6-6-2 6-2Z" fill="#83d8bc" stroke="#fffafd" stroke-width="2" stroke-linejoin="round"/>
  </g>
  <circle cx="25" cy="75" r="4" fill="#83d8bc"/>
  <circle cx="61" cy="19" r="3.5" fill="#b88cff"/>
</svg>
